<svg width="202" height="37" viewBox="0 0 202 37" fill="none" xmlns="http://www.w3.org/2000/svg">
<mask id="mask0_39_20" style="mask-type:luminance" maskUnits="userSpaceOnUse" x="0" y="0" width="46" height="37">
<path d="M0 0H45.7799V36.823H0V0Z" fill="white"/>
</mask>
<g mask="url(#mask0_39_20)">
<path d="M34.2653 0.853027C34.5234 0.852962 34.779 0.903738 35.0175 1.00246C35.256 1.10117 35.4727 1.2459 35.6553 1.42837C35.8378 1.61084 35.9827 1.82749 36.0815 2.06593C36.1804 2.30438 36.2313 2.55996 36.2313 2.81808C36.2314 3.0762 36.1806 3.3318 36.0819 3.5703C35.9832 3.8088 35.8384 4.02552 35.656 4.20808C35.4735 4.39064 35.2569 4.53548 35.0184 4.63432C34.78 4.73316 34.5244 4.78406 34.2663 4.78413C33.745 4.78413 33.245 4.57704 32.8764 4.20843C32.5078 3.83982 32.3007 3.33987 32.3007 2.81858C32.3007 2.29728 32.5078 1.79734 32.8764 1.42872C33.245 1.06011 33.744 0.853027 34.2653 0.853027Z" fill="#8CBCFF"/>
<path d="M37.6898 19.5014C38.4064 25.9335 34.6544 32.28 28.3338 34.768C22.0341 37.2481 15.0606 35.1283 11.1226 30.0268L11.1007 29.9313C19.5023 28.0473 30.3013 23.7898 37.6709 19.4686L37.6908 19.5014H37.6898ZM37.2181 16.9646L37.2718 17.0681C29.9212 20.9027 17.7069 25.7066 9.72228 27.909L9.67949 27.7537C5.65484 19.9682 9.22169 10.3365 17.4461 7.10003C25.9473 3.7561 35.0913 8.85658 37.2181 16.9646Z" fill="#FAF4D3"/>
<path d="M37.6719 19.4694C24.0434 27.4609 2.09691 33.5875 0.575226 29.7161C-0.02887 28.1825 2.92991 25.4466 7.99953 22.462L8.09905 22.452C8.17867 23.2412 8.32497 24.0304 8.53695 24.8157L8.41951 24.8465C0.875781 28.7905 1.35846 30.2177 9.72325 27.9088C13.4344 26.8857 18.3846 25.2058 23.7409 23.0979C41.3422 16.1712 49.2641 10.3412 36.193 13.922L36.0417 14.0016C35.6712 13.2939 35.2435 12.6175 34.7629 11.9794L34.8763 11.8928C47.4807 9.11614 48.9039 12.89 37.6719 19.4694Z" fill="#FFF68E"/>
<path d="M39.2145 31.4208C39.3216 31.4249 39.4268 31.4502 39.5241 31.4953C39.6214 31.5403 39.7088 31.6042 39.7813 31.6832C39.8537 31.7623 39.9098 31.8549 39.9462 31.9557C39.9827 32.0565 39.9987 32.1636 39.9935 32.2707C39.9883 32.3777 39.962 32.4827 39.9159 32.5796C39.8699 32.6764 39.8052 32.7631 39.7254 32.8348C39.6456 32.9064 39.5525 32.9615 39.4513 32.9969C39.3501 33.0323 39.2429 33.0473 39.1358 33.041C38.9225 33.0285 38.7228 32.9323 38.58 32.7733C38.4372 32.6144 38.3629 32.4055 38.3732 32.192C38.3836 31.9786 38.4778 31.7779 38.6353 31.6335C38.7928 31.4891 39.0009 31.4127 39.2145 31.4208ZM4.89844 4.44055C5.00728 4.44437 5.11577 4.42622 5.21745 4.3872C5.31913 4.34818 5.41191 4.28909 5.49025 4.21344C5.5686 4.13779 5.63091 4.04714 5.67346 3.94689C5.71602 3.84665 5.73795 3.73885 5.73795 3.62995C5.73795 3.52104 5.71602 3.41325 5.67346 3.313C5.63091 3.21276 5.5686 3.1221 5.49025 3.04646C5.41191 2.97081 5.31913 2.91171 5.21745 2.87269C5.11577 2.83367 5.00728 2.81553 4.89844 2.81935C4.68332 2.81935 4.47702 2.9048 4.32491 3.05691C4.1728 3.20902 4.08734 3.41533 4.08734 3.63045C4.08734 3.84556 4.1728 4.05187 4.32491 4.20398C4.47702 4.35609 4.68332 4.44055 4.89844 4.44055ZM22.8989 36.2755C21.4986 36.2755 20.0954 36.0804 18.715 35.6893C15.557 34.7889 12.7681 32.9053 10.7533 30.3122C10.7134 30.2639 10.6837 30.2081 10.6658 30.1482C10.6479 30.0882 10.6423 30.0252 10.6493 29.963C10.6562 29.9008 10.6756 29.8407 10.7063 29.7861C10.737 29.7315 10.7783 29.6837 10.8279 29.6455C10.8774 29.6072 10.9341 29.5793 10.9947 29.5634C11.0552 29.5475 11.1183 29.544 11.1802 29.553C11.2422 29.562 11.3017 29.5833 11.3552 29.6158C11.4087 29.6483 11.4551 29.6911 11.4917 29.7419C14.2644 33.3346 18.5478 35.3251 22.9268 35.3251C24.6873 35.3251 26.4628 35.0036 28.1626 34.3348C34.2036 31.9563 37.9296 25.8785 37.226 19.5539C37.2151 19.4323 37.2522 19.3113 37.3294 19.2168C37.4067 19.1223 37.5178 19.0617 37.6391 19.0482C37.7604 19.0347 37.8822 19.0692 37.9784 19.1444C38.0745 19.2195 38.1374 19.3294 38.1536 19.4504C38.904 26.193 34.936 32.6708 28.504 35.2027C26.7196 35.9092 24.8181 36.2731 22.8989 36.2755ZM9.67846 28.2192C9.59272 28.2194 9.50861 28.1959 9.43538 28.1512C9.36215 28.1066 9.30266 28.0427 9.26346 27.9664C8.38414 26.2616 7.83094 24.4076 7.6323 22.4997C7.30216 19.2041 8.04083 15.8897 9.73917 13.0462C11.4703 10.1392 14.1224 7.89334 17.2749 6.66486C23.6642 4.15194 31.0079 6.22099 35.1341 11.6987C35.9682 12.8085 36.6485 14.0261 37.1564 15.3183C37.3843 15.8965 37.5465 16.3821 37.6679 16.8459C37.6871 16.9062 37.6939 16.9699 37.6878 17.0329C37.6817 17.0959 37.6628 17.1571 37.6323 17.2126C37.6017 17.2681 37.5603 17.3168 37.5103 17.3557C37.4604 17.3947 37.4031 17.4231 37.3418 17.4392C37.2805 17.4553 37.2167 17.4587 37.154 17.4493C37.0914 17.44 37.0313 17.4179 36.9775 17.3846C36.9236 17.3512 36.8771 17.3073 36.8408 17.2554C36.8045 17.2035 36.7791 17.1448 36.7662 17.0828C36.6538 16.6548 36.5015 16.203 36.2885 15.6596C35.8111 14.4459 35.1716 13.3023 34.3877 12.26C30.5153 7.11569 23.6165 5.17303 17.6173 7.53269C11.6251 9.89135 7.90101 16.0069 8.56083 22.4042C8.74653 24.1963 9.26637 25.9378 10.0935 27.5385C10.1301 27.6096 10.1479 27.6889 10.1451 27.7689C10.1423 27.8488 10.119 27.9267 10.0774 27.995C10.0359 28.0634 9.97744 28.1199 9.90775 28.1591C9.83806 28.1984 9.75845 28.2191 9.67846 28.2192Z" fill="black"/>
<path d="M4.07144 31.368C2.09594 31.368 0.568283 30.9759 0.14034 29.8861C-0.742416 27.6439 3.79875 24.3926 7.76369 22.0598C7.81657 22.0258 7.87576 22.0029 7.93771 21.9924C7.99966 21.9819 8.0631 21.984 8.12422 21.9986C8.18534 22.0131 8.24288 22.0399 8.2934 22.0773C8.34392 22.1147 8.38638 22.1618 8.41822 22.216C8.45007 22.2702 8.47065 22.3302 8.47873 22.3925C8.48681 22.4549 8.48222 22.5182 8.46524 22.5787C8.44827 22.6392 8.41925 22.6956 8.37993 22.7446C8.34061 22.7936 8.2918 22.8342 8.23642 22.8639C2.32882 26.3402 0.650886 28.6362 1.00817 29.5448C1.36844 30.4604 4.1829 30.9938 10.9325 29.4901L10.9613 29.4831C10.9756 29.48 10.9898 29.477 11.0041 29.4741C15.0855 28.5585 19.7749 27.0786 24.5659 25.1927C29.3798 23.2988 33.8304 21.18 37.435 19.0662C43.4262 15.556 45.131 13.2402 44.7698 12.3226C44.4135 11.4169 41.6348 10.8805 34.9769 12.3485C34.856 12.3751 34.7294 12.3527 34.6251 12.286C34.5208 12.2194 34.4472 12.1141 34.4205 11.9932C34.3939 11.8723 34.4163 11.7458 34.483 11.6414C34.5496 11.5371 34.6549 11.4635 34.7758 11.4368C39.2463 10.4516 44.7588 9.74697 45.6386 11.9812C46.5273 14.2384 41.9245 17.5176 37.9068 19.8713C34.2613 22.009 29.7659 24.1497 24.9073 26.0615C20.0705 27.9644 15.3333 29.4602 11.2032 30.3857L11.1932 30.3877L11.1285 30.4027C8.79473 30.9222 6.17831 31.368 4.07144 31.368Z" fill="black"/>
<path d="M4.06051 29.4843C3.25936 29.4843 2.82843 29.2932 2.67019 28.8912C2.45423 28.3438 2.87819 27.7367 4.08738 26.8649C5.02288 26.1902 6.40822 25.3721 8.2026 24.4336C8.31144 24.3826 8.43578 24.3755 8.54972 24.4138C8.66365 24.4522 8.75839 24.533 8.8142 24.6395C8.87001 24.746 8.88258 24.8699 8.84929 24.9854C8.816 25.1009 8.73943 25.1992 8.63552 25.2596C4.7691 27.2809 3.83957 28.2114 3.61863 28.519C3.99184 28.5936 5.32045 28.6404 9.59789 27.4591C13.4474 26.3982 18.4095 24.6953 23.5707 22.6641C28.7299 20.6339 33.5199 18.4991 37.0559 16.655C40.9979 14.6009 41.9394 13.6594 42.1613 13.3509C41.7921 13.2762 40.4854 13.2295 36.3164 14.372C36.1988 14.3998 36.0749 14.3808 35.9709 14.3191C35.867 14.2574 35.791 14.1578 35.759 14.0412C35.727 13.9246 35.7415 13.8002 35.7994 13.694C35.8574 13.5879 35.9542 13.5084 36.0696 13.4723C38.0103 12.9409 39.5698 12.5995 40.7073 12.4572C42.1763 12.2751 42.8948 12.4303 43.1098 12.9777C43.3267 13.529 42.8958 14.1401 41.6687 15.0209C40.7183 15.7046 39.311 16.5316 37.4888 17.482C33.9229 19.3411 29.1011 21.4898 23.9121 23.5329C18.721 25.5751 13.726 27.2889 9.84669 28.3587C7.86621 28.9061 6.27387 29.2574 5.11544 29.4057C4.7084 29.4574 4.35907 29.4843 4.06051 29.4843ZM34.2653 5.25182C33.6205 5.25103 33.0022 4.99452 32.5463 4.53854C32.0903 4.08257 31.8338 3.46436 31.833 2.81951C31.8338 2.17467 32.0903 1.55646 32.5463 1.10049C33.0022 0.644511 33.6205 0.387997 34.2653 0.387207C34.9101 0.387997 35.5283 0.644511 35.9843 1.10049C36.4403 1.55646 36.6968 2.17467 36.6976 2.81951C36.6968 3.46436 36.4403 4.08257 35.9843 4.53854C35.5283 4.99452 34.9101 5.25103 34.2653 5.25182ZM34.2653 1.32072C33.4393 1.32072 32.7665 1.99249 32.7665 2.81951C32.7665 3.64554 33.4393 4.31831 34.2653 4.31831C35.0923 4.31831 35.7651 3.64554 35.7651 2.81951C35.7651 1.99249 35.0923 1.32072 34.2653 1.32072Z" fill="black"/>
</g>
<path d="M53.7799 23.7644V8.4394H56.7354V21.4656H63.4565V23.7644H53.7799Z" fill="#004643"/>
<path d="M70.3058 24.0271C69.1965 24.0271 68.2114 23.7936 67.3502 23.3265C66.5037 22.8595 65.8396 22.2027 65.358 21.3562C64.8763 20.5097 64.6355 19.5391 64.6355 18.4444C64.6355 17.306 64.869 16.3062 65.3361 15.4451C65.8177 14.5694 66.4818 13.8834 67.3283 13.3872C68.1895 12.8909 69.1892 12.6428 70.3277 12.6428C71.4077 12.6428 72.3564 12.8764 73.1737 13.3434C74.0057 13.8104 74.6479 14.4526 75.1003 15.27C75.5674 16.0727 75.8009 16.9849 75.8009 18.0066C75.8009 18.1525 75.8009 18.3204 75.8009 18.5101C75.8009 18.6853 75.7863 18.8677 75.7571 19.0574H66.7591V17.2403H72.8016C72.7578 16.5689 72.5024 16.0362 72.0353 15.6421C71.5829 15.2335 71.0136 15.0291 70.3277 15.0291C69.8168 15.0291 69.3498 15.1459 68.9265 15.3794C68.5033 15.5984 68.1676 15.9341 67.9194 16.3865C67.6713 16.839 67.5473 17.4082 67.5473 18.0941V18.729C67.5473 19.3128 67.664 19.8237 67.8976 20.2615C68.1311 20.6994 68.4522 21.0351 68.8608 21.2686C69.2841 21.5021 69.7584 21.6189 70.2839 21.6189C70.8239 21.6189 71.2764 21.5021 71.6412 21.2686C72.0061 21.0205 72.2834 20.7067 72.4732 20.3272H75.4944C75.2754 21.0132 74.9252 21.6408 74.4435 22.21C73.9619 22.7646 73.3708 23.2098 72.6702 23.5455C71.9696 23.8666 71.1815 24.0271 70.3058 24.0271Z" fill="#004643"/>
<path d="M82.2695 28.7997C81.2333 28.7997 80.3211 28.6684 79.5329 28.4057C78.7594 28.1576 78.161 27.7708 77.7377 27.2454C77.3145 26.7345 77.1028 26.1069 77.1028 25.3626C77.1028 24.8517 77.2342 24.3701 77.4969 23.9176C77.7596 23.4798 78.1391 23.0784 78.6353 22.7135C79.1462 22.3487 79.7738 22.0276 80.5181 21.7503L81.6128 23.2171C80.956 23.436 80.4816 23.706 80.1897 24.0271C79.8978 24.3628 79.7519 24.7131 79.7519 25.078C79.7519 25.3991 79.8613 25.6691 80.0803 25.888C80.3138 26.1215 80.6203 26.2967 80.9998 26.4134C81.3792 26.5302 81.8025 26.5886 82.2695 26.5886C82.722 26.5886 83.1161 26.5229 83.4518 26.3915C83.802 26.2748 84.072 26.1069 84.2618 25.888C84.4515 25.6691 84.5464 25.4137 84.5464 25.1217C84.5464 24.7277 84.4077 24.4066 84.1304 24.1585C83.8531 23.9249 83.3131 23.779 82.5104 23.7206C81.766 23.6622 81.1092 23.582 80.54 23.4798C79.9708 23.363 79.4673 23.2317 79.0294 23.0857C78.6061 22.9252 78.2413 22.75 77.9348 22.5603C77.6283 22.3705 77.3874 22.1808 77.2123 21.9911V21.4875L79.5548 18.9699L81.569 19.6485L78.898 22.3633L79.7519 20.9402C79.8978 21.0424 80.0438 21.13 80.1897 21.2029C80.3503 21.2759 80.5473 21.3416 80.7808 21.4C81.0143 21.4583 81.3135 21.5167 81.6784 21.5751C82.0433 21.6335 82.5104 21.6846 83.0796 21.7284C84.0429 21.8159 84.831 21.9984 85.444 22.2757C86.057 22.5384 86.5095 22.9033 86.8014 23.3703C87.0933 23.8374 87.2392 24.3993 87.2392 25.0561C87.2392 25.6837 87.0568 26.2821 86.6919 26.8513C86.3416 27.4205 85.8016 27.8875 85.0718 28.2524C84.3421 28.6173 83.408 28.7997 82.2695 28.7997ZM82.2914 20.5461C81.3719 20.5461 80.5765 20.371 79.9051 20.0207C79.2483 19.6704 78.7375 19.1961 78.3726 18.5977C78.0223 17.9993 77.8472 17.3352 77.8472 16.6054C77.8472 15.8757 78.0223 15.2116 78.3726 14.6132C78.7375 14.0148 79.2483 13.5404 79.9051 13.1901C80.5765 12.8253 81.3719 12.6428 82.2914 12.6428C83.2109 12.6428 83.9991 12.8253 84.6559 13.1901C85.3272 13.5404 85.8381 14.0148 86.1884 14.6132C86.5386 15.2116 86.7138 15.8757 86.7138 16.6054C86.7138 17.3352 86.5386 17.9993 86.1884 18.5977C85.8381 19.1961 85.3272 19.6704 84.6559 20.0207C83.9991 20.371 83.2109 20.5461 82.2914 20.5461ZM82.2914 18.3131C82.846 18.3131 83.2985 18.1671 83.6488 17.8752C83.9991 17.5833 84.1742 17.1601 84.1742 16.6054C84.1742 16.0654 83.9991 15.6494 83.6488 15.3575C83.2985 15.0656 82.846 14.9197 82.2914 14.9197C81.7222 14.9197 81.2625 15.0656 80.9122 15.3575C80.5619 15.6494 80.3868 16.0654 80.3868 16.6054C80.3868 17.1601 80.5619 17.5833 80.9122 17.8752C81.2625 18.1671 81.7222 18.3131 82.2914 18.3131ZM84.0647 14.9854L83.5831 12.9055H88.1368V14.6351L84.0647 14.9854Z" fill="#004643"/>
<path d="M93.9003 24.0271C92.9954 24.0271 92.2437 23.8812 91.6453 23.5893C91.0469 23.2973 90.6018 22.9033 90.3099 22.407C90.0326 21.9108 89.8939 21.3635 89.8939 20.7651C89.8939 20.0937 90.0617 19.5099 90.3974 19.0136C90.7477 18.5028 91.2732 18.1014 91.9737 17.8095C92.6743 17.5176 93.55 17.3717 94.6009 17.3717H97.3375C97.3375 16.8463 97.2572 16.4157 97.0966 16.08C96.9507 15.7297 96.7245 15.467 96.418 15.2919C96.1115 15.1167 95.7101 15.0291 95.2139 15.0291C94.6592 15.0291 94.1776 15.1605 93.7689 15.4232C93.3603 15.6713 93.1122 16.0508 93.0246 16.5616H90.1566C90.2296 15.7589 90.4923 15.0656 90.9448 14.4818C91.3972 13.898 91.9956 13.4456 92.74 13.1245C93.4843 12.8034 94.3163 12.6428 95.2358 12.6428C96.272 12.6428 97.1696 12.818 97.9286 13.1683C98.6875 13.5039 99.2713 14.0075 99.68 14.6789C100.089 15.3356 100.293 16.1384 100.293 17.0871V23.7644H97.8191L97.4907 22.0786H97.4688C97.3083 22.3705 97.1112 22.6333 96.8777 22.8668C96.6588 23.1003 96.4034 23.3046 96.1115 23.4798C95.8196 23.6549 95.4912 23.7863 95.1263 23.8739C94.7614 23.976 94.3527 24.0271 93.9003 24.0271ZM94.6447 21.7503C95.0387 21.7503 95.3817 21.6846 95.6736 21.5532C95.9801 21.4073 96.2428 21.2175 96.4618 20.984C96.6807 20.7505 96.8485 20.4805 96.9653 20.174C97.0967 19.8675 97.1842 19.5391 97.228 19.1888H94.9512C94.4987 19.1888 94.1265 19.2472 93.8346 19.3639C93.5427 19.4661 93.3311 19.6193 93.1997 19.8237C93.0684 20.0134 93.0027 20.2396 93.0027 20.5024C93.0027 20.7651 93.0684 20.9913 93.1997 21.181C93.3457 21.3708 93.5427 21.5167 93.7908 21.6189C94.039 21.7065 94.3236 21.7503 94.6447 21.7503Z" fill="#004643"/>
<path d="M107.947 24.0271C106.823 24.0271 105.831 23.7863 104.97 23.3046C104.108 22.8084 103.437 22.137 102.955 21.2905C102.474 20.4294 102.233 19.4442 102.233 18.335C102.233 17.2257 102.474 16.2478 102.955 15.4013C103.452 14.5402 104.13 13.8688 104.991 13.3872C105.853 12.8909 106.838 12.6428 107.947 12.6428C109.348 12.6428 110.53 13.0077 111.494 13.7375C112.457 14.4672 113.063 15.4743 113.311 16.7587H110.202C110.071 16.2624 109.801 15.8757 109.392 15.5984C108.983 15.3065 108.494 15.1605 107.925 15.1605C107.414 15.1605 106.954 15.2846 106.546 15.5327C106.152 15.7808 105.838 16.1457 105.604 16.6273C105.371 17.109 105.254 17.6782 105.254 18.335C105.254 18.8312 105.32 19.2764 105.451 19.6704C105.583 20.0499 105.772 20.3783 106.02 20.6556C106.269 20.9329 106.553 21.1445 106.874 21.2905C107.195 21.4365 107.546 21.5094 107.925 21.5094C108.305 21.5094 108.648 21.451 108.954 21.3343C109.261 21.2029 109.523 21.0205 109.742 20.787C109.961 20.5388 110.114 20.2469 110.202 19.9113H113.311C113.063 21.1664 112.457 22.1662 111.494 22.9106C110.53 23.6549 109.348 24.0271 107.947 24.0271Z" fill="#004643"/>
<path d="M116.838 28.537L119.531 22.5384H118.874L114.43 12.9055H117.648L120.823 19.8675H120.844L123.669 12.9055H126.821L119.969 28.537H116.838Z" fill="#004643"/>
<path d="M128.29 28.537V12.9055H130.917L131.223 14.4599C131.471 14.1388 131.756 13.8396 132.077 13.5623C132.413 13.2704 132.807 13.0442 133.259 12.8836C133.726 12.7231 134.259 12.6428 134.857 12.6428C135.879 12.6428 136.784 12.8909 137.572 13.3872C138.36 13.8834 138.988 14.5621 139.455 15.4232C139.922 16.2697 140.155 17.2476 140.155 18.3569C140.155 19.4369 139.922 20.4075 139.455 21.2686C138.988 22.1297 138.353 22.8084 137.55 23.3046C136.762 23.7863 135.857 24.0271 134.836 24.0271C134.018 24.0271 133.31 23.8812 132.712 23.5893C132.113 23.2828 131.625 22.8668 131.245 22.3414V28.537H128.29ZM134.157 21.4656C134.741 21.4656 135.259 21.3343 135.711 21.0716C136.164 20.8089 136.514 20.444 136.762 19.9769C137.025 19.4953 137.156 18.9553 137.156 18.3569C137.156 17.7439 137.025 17.2038 136.762 16.7368C136.514 16.2551 136.164 15.883 135.711 15.6203C135.259 15.3429 134.741 15.2043 134.157 15.2043C133.573 15.2043 133.055 15.3429 132.602 15.6203C132.15 15.883 131.8 16.2478 131.552 16.7149C131.303 17.1819 131.179 17.722 131.179 18.335C131.179 18.948 131.303 19.4953 131.552 19.9769C131.8 20.444 132.15 20.8089 132.602 21.0716C133.055 21.3343 133.573 21.4656 134.157 21.4656Z" fill="#004643"/>
<path d="M142.276 23.7644V12.9055H144.881L145.166 14.9854C145.443 14.4745 145.771 14.0513 146.151 13.7156C146.545 13.3653 146.99 13.1026 147.486 12.9274C147.983 12.7377 148.537 12.6428 149.15 12.6428V15.7735H148.34C147.873 15.7735 147.45 15.8246 147.07 15.9268C146.691 16.0289 146.363 16.1968 146.085 16.4303C145.808 16.6638 145.596 16.9849 145.45 17.3936C145.304 17.7876 145.231 18.2839 145.231 18.8823V23.7644H142.276Z" fill="#004643"/>
<path d="M155.743 24.0271C154.707 24.0271 153.765 23.7863 152.919 23.3046C152.072 22.823 151.401 22.1516 150.905 21.2905C150.423 20.4294 150.182 19.4442 150.182 18.335C150.182 17.2111 150.43 16.226 150.926 15.3794C151.423 14.5183 152.094 13.8469 152.941 13.3653C153.787 12.8836 154.728 12.6428 155.765 12.6428C156.816 12.6428 157.764 12.8836 158.611 13.3653C159.457 13.8469 160.121 14.5183 160.603 15.3794C161.099 16.226 161.347 17.2111 161.347 18.335C161.347 19.4588 161.099 20.4513 160.603 21.3124C160.107 22.1589 159.435 22.823 158.589 23.3046C157.757 23.7863 156.808 24.0271 155.743 24.0271ZM155.765 21.4875C156.232 21.4875 156.655 21.3708 157.035 21.1373C157.429 20.9037 157.742 20.5534 157.976 20.0864C158.224 19.6048 158.348 19.0209 158.348 18.335C158.348 17.6344 158.231 17.0506 157.998 16.5835C157.764 16.1165 157.45 15.7662 157.056 15.5327C156.677 15.2992 156.254 15.1824 155.787 15.1824C155.32 15.1824 154.889 15.2992 154.495 15.5327C154.101 15.7662 153.787 16.1165 153.554 16.5835C153.32 17.0506 153.203 17.6344 153.203 18.335C153.203 19.0209 153.32 19.6048 153.554 20.0864C153.787 20.5534 154.094 20.9037 154.473 21.1373C154.867 21.3708 155.298 21.4875 155.765 21.4875Z" fill="#004643"/>
<path d="M161.392 28.537V26.0194H162.289C162.756 26.0194 163.085 25.9245 163.275 25.7347C163.479 25.545 163.581 25.2312 163.581 24.7934V12.9055H166.537V24.7934C166.537 25.6983 166.376 26.4207 166.055 26.9607C165.748 27.5154 165.311 27.9167 164.741 28.1649C164.172 28.413 163.501 28.537 162.727 28.537H161.392ZM165.07 11.3511C164.53 11.3511 164.092 11.1979 163.756 10.8914C163.42 10.5703 163.253 10.1689 163.253 9.68729C163.253 9.20565 163.42 8.81158 163.756 8.50508C164.092 8.18399 164.53 8.02344 165.07 8.02344C165.61 8.02344 166.048 8.18399 166.383 8.50508C166.734 8.81158 166.909 9.20565 166.909 9.68729C166.909 10.1689 166.734 10.5703 166.383 10.8914C166.048 11.1979 165.61 11.3511 165.07 11.3511Z" fill="#004643"/>
<path d="M174.396 24.0271C173.287 24.0271 172.302 23.7936 171.441 23.3265C170.594 22.8595 169.93 22.2027 169.449 21.3562C168.967 20.5097 168.726 19.5391 168.726 18.4444C168.726 17.306 168.96 16.3062 169.427 15.4451C169.908 14.5694 170.572 13.8834 171.419 13.3872C172.28 12.8909 173.28 12.6428 174.418 12.6428C175.498 12.6428 176.447 12.8764 177.264 13.3434C178.096 13.8104 178.739 14.4526 179.191 15.27C179.658 16.0727 179.892 16.9849 179.892 18.0066C179.892 18.1525 179.892 18.3204 179.892 18.5101C179.892 18.6853 179.877 18.8677 179.848 19.0574H170.85V17.2403H176.892C176.848 16.5689 176.593 16.0362 176.126 15.6421C175.674 15.2335 175.104 15.0291 174.418 15.0291C173.908 15.0291 173.44 15.1459 173.017 15.3794C172.594 15.5984 172.258 15.9341 172.01 16.3865C171.762 16.839 171.638 17.4082 171.638 18.0941V18.729C171.638 19.3128 171.755 19.8237 171.988 20.2615C172.222 20.6994 172.543 21.0351 172.952 21.2686C173.375 21.5021 173.849 21.6189 174.375 21.6189C174.915 21.6189 175.367 21.5021 175.732 21.2686C176.097 21.0205 176.374 20.7067 176.564 20.3272H179.585C179.366 21.0132 179.016 21.6408 178.534 22.21C178.053 22.7646 177.461 23.2098 176.761 23.5455C176.06 23.8666 175.272 24.0271 174.396 24.0271Z" fill="#004643"/>
<path d="M187.229 24.0271C186.105 24.0271 185.113 23.7863 184.252 23.3046C183.391 22.8084 182.719 22.137 182.238 21.2905C181.756 20.4294 181.515 19.4442 181.515 18.335C181.515 17.2257 181.756 16.2478 182.238 15.4013C182.734 14.5402 183.413 13.8688 184.274 13.3872C185.135 12.8909 186.12 12.6428 187.229 12.6428C188.63 12.6428 189.813 13.0077 190.776 13.7375C191.739 14.4672 192.345 15.4743 192.593 16.7587H189.484C189.353 16.2624 189.083 15.8757 188.674 15.5984C188.266 15.3065 187.777 15.1605 187.207 15.1605C186.697 15.1605 186.237 15.2846 185.828 15.5327C185.434 15.7808 185.12 16.1457 184.887 16.6273C184.653 17.109 184.536 17.6782 184.536 18.335C184.536 18.8312 184.602 19.2764 184.733 19.6704C184.865 20.0499 185.055 20.3783 185.303 20.6556C185.551 20.9329 185.835 21.1445 186.157 21.2905C186.478 21.4365 186.828 21.5094 187.207 21.5094C187.587 21.5094 187.93 21.451 188.236 21.3343C188.543 21.2029 188.806 21.0205 189.024 20.787C189.243 20.5388 189.397 20.2469 189.484 19.9113H192.593C192.345 21.1664 191.739 22.1662 190.776 22.9106C189.813 23.6549 188.63 24.0271 187.229 24.0271Z" fill="#004643"/>
<path d="M199.538 23.7644C198.764 23.7644 198.085 23.6476 197.502 23.4141C196.932 23.166 196.487 22.7646 196.166 22.21C195.845 21.6408 195.685 20.8672 195.685 19.8894V15.3575H193.824V12.9055H195.685L196.013 9.95001H198.64V12.9055H201.53V15.3575H198.64V19.9331C198.64 20.4294 198.75 20.7797 198.968 20.984C199.187 21.1737 199.56 21.2686 200.085 21.2686H201.464V23.7644H199.538Z" fill="#004643"/>
</svg>
